# xmcd CD database file
#
# Track frame offsets:
#	150
#	26065
#	50794
#	94581
#	116891
#	176655
#	217098
#
# Disc length: 3639 seconds
#
# Revision: 1
# Processed by: cddbd v1.5.2PL0 Copyright (c) Steve Scherf et al.
# Submitted via: CDex 1.51
#
DISCID=670e3507
DTITLE=JOE BONAMASSA - Hammersmith Apollo 
DYEAR=2013
DGENRE=Blues
TTITLE0=Who's Been Talking
TTITLE1=Jockey Full Of Bourbon
TTITLE2=Tea For One
TTITLE3=Lonesome Road Blues
TTITLE4=The Ballad Of John Henry
TTITLE5=Sloe Gin
TTITLE6=Just Got Paid
EXTD=YEAR: 2013
EXTT0=
EXTT1=
EXTT2=
EXTT3=
EXTT4=
EXTT5=
EXTT6=
PLAYORDER=
